<svg xmlns="http://www.w3.org/2000/svg" viewBox="0 0 13681 10407"
     shape-rendering="geometricPrecision" text-rendering="geometricPrecision" image-rendering="optimizeQuality"
     fill-rule="evenodd" clip-rule="evenodd">
  <defs>
    <style>.fil0,.fil1{fill:#163e73}.fil1{fill-rule:nonzero}</style>
  </defs>
  <g id="Слой_x0020_1">
    <g id="_914506300544">
      <path class="fil0"
            d="M4764 10407c353 1 702-174 910-396l-231-411c-111 165-332 348-647 365-495 27-889-363-889-840 0-820 1043-1137 1517-501l228-407c-204-211-525-374-873-373-729 3-1313 552-1313 1281 0 730 579 1280 1298 1282z"/>
      <path class="fil1"
            d="M7693 10335h511l-750-1310 679-1179h-515l-606 1059-444-3-3-1056h-484l3 2489h484V9331l550-1z"/>
      <path class="fil1"
            d="M11275 9105c0-750-493-1198-1368-1247h-445c-875 49-1372 493-1372 1247 0 749 497 1193 1372 1242h445c875-41 1368-493 1368-1242zm-1368 827V8277c586 45 905 322 905 823 0 502-312 783-905 832zm-1346-827c0-506 304-779 901-828v1655c-575-53-901-326-901-827zM13188 7858c-244 456-453 868-726 1336l-723-1336h-494l964 1783c-106 163-227 323-442 323-45 0-92-6-142-17l219 397c286 3 537-108 755-508l1082-1978h-493z"/>
      <g>
        <path class="fil0"
              d="M94 5050c585 710 1390 1175 2302 1296-29 30-52 74-76 101-698 60-1329-88-1928-455-123-298-233-616-298-942z"/>
        <path class="fil0"
              d="M2660 6060c-38 35-100 97-129 132C1462 5968 583 5314 14 4384c-42-586 12-1165 167-1731 215 1493 1118 2746 2479 3407z"/>
        <path class="fil0"
              d="M3093 5721c-87 56-218 143-305 221C1360 5044 571 3590 456 1923 901 1054 1289 593 2012 0c-971 2157-302 4410 1081 5721z"/>
        <path class="fil0"
              d="M4198 1038c1093 699 2618 2677 1906 4458-569 1421-1728 1779-2127 2032-400 252-1182 962-892 2059-837-358-1120-1218-845-1998 610-1735 1986-1480 2377-3803 176-1047-197-2319-419-2748zM569 6382c522 284 1072 367 1649 219-17 27-55 100-73 126-405 204-830 210-1278 135-118-167-186-299-298-480zM1044 7113c333 55 705-30 1004-199l-50 132c-187 214-492 293-744 305-92-73-144-162-210-238z"/>
      </g>
    </g>
  </g>
</svg>
